<svg width="249" height="75" viewBox="0 0 249 75" fill="none" xmlns="http://www.w3.org/2000/svg">
<path d="M64.736 50.32C63.0933 50.32 61.568 50.032 60.16 49.456C58.752 48.8587 57.5147 48.0373 56.448 46.992C55.4027 45.9253 54.592 44.688 54.016 43.28C53.4613 41.872 53.184 40.3573 53.184 38.736C53.184 37.1147 53.4613 35.6 54.016 34.192C54.592 32.784 55.4027 31.5573 56.448 30.512C57.5147 29.4667 58.7413 28.6453 60.128 28.048C61.536 27.4507 63.072 27.152 64.736 27.152C66.528 27.152 68.1067 27.4507 69.472 28.048C70.8373 28.624 72.0427 29.424 73.088 30.448L70.144 33.392C69.5253 32.7093 68.768 32.176 67.872 31.792C66.976 31.408 65.9307 31.216 64.736 31.216C63.6907 31.216 62.7307 31.3973 61.856 31.76C61.0027 32.1013 60.256 32.6133 59.616 33.296C58.976 33.9573 58.4853 34.7573 58.144 35.696C57.8027 36.6133 57.632 37.6267 57.632 38.736C57.632 39.8667 57.8027 40.8907 58.144 41.808C58.4853 42.7253 58.976 43.5253 59.616 44.208C60.256 44.8693 61.0027 45.3813 61.856 45.744C62.7307 46.1067 63.6907 46.288 64.736 46.288C65.9947 46.288 67.072 46.096 67.968 45.712C68.8853 45.328 69.6533 44.784 70.272 44.08L73.216 47.024C72.1707 48.0693 70.9547 48.88 69.568 49.456C68.1813 50.032 66.5707 50.32 64.736 50.32ZM81.8513 50.32C80.4433 50.32 79.1739 49.968 78.0433 49.264C76.9126 48.56 76.0273 47.6 75.3873 46.384C74.7473 45.168 74.4273 43.8027 74.4273 42.288C74.4273 40.752 74.7473 39.376 75.3873 38.16C76.0273 36.944 76.9126 35.984 78.0433 35.28C79.1739 34.576 80.4433 34.224 81.8513 34.224C82.9606 34.224 83.9526 34.448 84.8273 34.896C85.7019 35.344 86.3953 35.9733 86.9073 36.784C87.4406 37.5733 87.7286 38.4693 87.7713 39.472V45.04C87.7286 46.064 87.4406 46.9707 86.9073 47.76C86.3953 48.5493 85.7019 49.1787 84.8273 49.648C83.9526 50.096 82.9606 50.32 81.8513 50.32ZM82.6193 46.448C83.7926 46.448 84.7419 46.064 85.4673 45.296C86.1926 44.5067 86.5553 43.4933 86.5553 42.256C86.5553 41.4453 86.3846 40.7307 86.0433 40.112C85.7233 39.472 85.2646 38.9813 84.6673 38.64C84.0913 38.2773 83.4086 38.096 82.6193 38.096C81.8513 38.096 81.1686 38.2773 80.5713 38.64C79.9953 38.9813 79.5366 39.472 79.1953 40.112C78.8753 40.7307 78.7153 41.4453 78.7153 42.256C78.7153 43.088 78.8753 43.824 79.1953 44.464C79.5366 45.0827 79.9953 45.5733 80.5713 45.936C81.1686 46.2773 81.8513 46.448 82.6193 46.448ZM86.3313 50V45.84L87.0033 42.064L86.3313 38.352V34.544H90.4913V50H86.3313ZM99.5118 50.352C98.6371 50.352 97.7731 50.2347 96.9198 50C96.0878 49.7653 95.3198 49.4453 94.6158 49.04C93.9118 48.6133 93.3038 48.1013 92.7918 47.504L95.2878 44.976C95.8211 45.5733 96.4398 46.0213 97.1438 46.32C97.8478 46.6187 98.6264 46.768 99.4798 46.768C100.162 46.768 100.674 46.672 101.016 46.48C101.378 46.288 101.56 46 101.56 45.616C101.56 45.1893 101.368 44.8587 100.984 44.624C100.621 44.3893 100.141 44.1973 99.5438 44.048C98.9464 43.8773 98.3171 43.696 97.6558 43.504C97.0158 43.2907 96.3971 43.024 95.7998 42.704C95.2024 42.3627 94.7118 41.904 94.3278 41.328C93.9651 40.7307 93.7838 39.9627 93.7838 39.024C93.7838 38.0427 94.0184 37.1893 94.4878 36.464C94.9784 35.7387 95.6718 35.1733 96.5677 34.768C97.4638 34.3627 98.5198 34.16 99.7358 34.16C101.016 34.16 102.168 34.384 103.192 34.832C104.237 35.28 105.101 35.952 105.784 36.848L103.256 39.376C102.786 38.8 102.253 38.384 101.656 38.128C101.08 37.872 100.45 37.744 99.7678 37.744C99.1491 37.744 98.6691 37.84 98.3278 38.032C98.0078 38.224 97.8478 38.4907 97.8478 38.832C97.8478 39.216 98.0291 39.5147 98.3918 39.728C98.7758 39.9413 99.2664 40.1333 99.8638 40.304C100.461 40.4533 101.08 40.6347 101.72 40.848C102.381 41.04 103 41.3173 103.576 41.68C104.173 42.0427 104.653 42.5227 105.016 43.12C105.4 43.7173 105.592 44.4853 105.592 45.424C105.592 46.9387 105.048 48.144 103.96 49.04C102.872 49.9147 101.389 50.352 99.5118 50.352ZM118.819 50V41.136C118.819 40.2187 118.531 39.472 117.955 38.896C117.379 38.32 116.632 38.032 115.715 38.032C115.117 38.032 114.584 38.16 114.115 38.416C113.645 38.672 113.272 39.0347 112.995 39.504C112.739 39.9733 112.611 40.5173 112.611 41.136L110.979 40.304C110.979 39.088 111.235 38.032 111.747 37.136C112.259 36.2187 112.963 35.504 113.859 34.992C114.776 34.48 115.821 34.224 116.995 34.224C118.168 34.224 119.203 34.48 120.099 34.992C121.016 35.504 121.731 36.208 122.243 37.104C122.755 38 123.01 39.0347 123.01 40.208V50H118.819ZM108.419 50V26.864H112.611V50H108.419Z" fill="white"/>
<path d="M131.859 50V27.216H138.259V50H131.859ZM125.043 32.656V27.216H145.107V32.656H125.043ZM144.192 50V34.256H150.464V50H144.192ZM150.464 41.488L147.552 38.896C148.362 37.1893 149.301 35.9413 150.368 35.152C151.456 34.3413 152.81 33.936 154.432 33.936C155.157 33.936 155.776 34.0213 156.288 34.192C156.821 34.3627 157.248 34.608 157.568 34.928L154.048 39.92C153.898 39.7493 153.674 39.6107 153.376 39.504C153.098 39.376 152.768 39.312 152.384 39.312C151.744 39.312 151.264 39.504 150.944 39.888C150.624 40.2507 150.464 40.784 150.464 41.488ZM164.564 50.32C163.092 50.32 161.791 49.968 160.66 49.264C159.529 48.56 158.644 47.6 158.004 46.384C157.364 45.1467 157.044 43.728 157.044 42.128C157.044 40.528 157.364 39.1093 158.004 37.872C158.644 36.6347 159.529 35.6747 160.66 34.992C161.791 34.288 163.092 33.936 164.564 33.936C165.481 33.936 166.324 34.096 167.092 34.416C167.881 34.7147 168.532 35.1413 169.044 35.696C169.577 36.2507 169.919 36.8907 170.068 37.616V46.64C169.919 47.3653 169.577 48.0053 169.044 48.56C168.532 49.1147 167.881 49.552 167.092 49.872C166.324 50.1707 165.481 50.32 164.564 50.32ZM165.972 44.816C166.761 44.816 167.391 44.5707 167.86 44.08C168.351 43.568 168.596 42.9173 168.596 42.128C168.596 41.5947 168.489 41.136 168.276 40.752C168.063 40.3467 167.753 40.0267 167.348 39.792C166.964 39.5573 166.516 39.44 166.004 39.44C165.492 39.44 165.033 39.5573 164.628 39.792C164.244 40.0267 163.935 40.3467 163.7 40.752C163.465 41.1573 163.348 41.616 163.348 42.128C163.348 42.64 163.455 43.0987 163.668 43.504C163.903 43.9093 164.223 44.2293 164.628 44.464C165.033 44.6987 165.481 44.816 165.972 44.816ZM168.404 50V45.776L169.268 41.936L168.404 38.128V34.256H174.516V50H168.404ZM185.503 50.384C183.797 50.384 182.261 50.032 180.895 49.328C179.53 48.624 178.453 47.6533 177.663 46.416C176.874 45.1573 176.479 43.7387 176.479 42.16C176.479 40.56 176.874 39.1413 177.663 37.904C178.474 36.6453 179.562 35.664 180.927 34.96C182.314 34.2347 183.871 33.872 185.599 33.872C186.837 33.872 187.946 34.064 188.927 34.448C189.93 34.832 190.858 35.4187 191.711 36.208L187.775 40.144C187.498 39.888 187.189 39.696 186.847 39.568C186.506 39.44 186.09 39.376 185.599 39.376C185.087 39.376 184.618 39.4933 184.191 39.728C183.786 39.9413 183.455 40.2507 183.199 40.656C182.943 41.0613 182.815 41.5413 182.815 42.096C182.815 42.6507 182.943 43.1413 183.199 43.568C183.455 43.9733 183.797 44.2933 184.223 44.528C184.65 44.7627 185.109 44.88 185.599 44.88C186.154 44.88 186.613 44.7947 186.975 44.624C187.338 44.4533 187.658 44.2187 187.935 43.92L191.871 47.856C190.954 48.7093 189.994 49.3493 188.991 49.776C187.989 50.1813 186.826 50.384 185.503 50.384ZM203.836 50L199.452 41.712L203.804 34.256H210.556L204.924 42.672L205.084 40.624L210.876 50H203.836ZM193.692 50V26.576H199.964V50H193.692ZM219.852 50.384C218.018 50.384 216.407 50.0427 215.02 49.36C213.634 48.656 212.546 47.6853 211.756 46.448C210.988 45.1893 210.604 43.7493 210.604 42.128C210.604 40.528 210.978 39.1093 211.724 37.872C212.492 36.6347 213.538 35.664 214.86 34.96C216.183 34.2347 217.676 33.872 219.34 33.872C220.983 33.872 222.434 34.2133 223.692 34.896C224.951 35.5573 225.932 36.4853 226.636 37.68C227.362 38.8747 227.724 40.24 227.724 41.776C227.724 42.096 227.703 42.4373 227.66 42.8C227.639 43.1413 227.575 43.5467 227.468 44.016L213.26 44.112V40.272L225.132 40.176L222.22 41.872C222.22 41.0187 222.114 40.3253 221.9 39.792C221.708 39.2373 221.41 38.8213 221.004 38.544C220.599 38.2667 220.087 38.128 219.468 38.128C218.828 38.128 218.274 38.288 217.804 38.608C217.335 38.928 216.972 39.3867 216.716 39.984C216.482 40.5813 216.364 41.3067 216.364 42.16C216.364 43.0347 216.492 43.7707 216.748 44.368C217.026 44.944 217.42 45.3813 217.932 45.68C218.444 45.9787 219.084 46.128 219.852 46.128C220.599 46.128 221.25 46.0107 221.804 45.776C222.38 45.52 222.903 45.1253 223.372 44.592L226.508 47.696C225.719 48.592 224.77 49.264 223.66 49.712C222.551 50.16 221.282 50.384 219.852 50.384ZM229.598 50V34.256H235.87V50H229.598ZM235.87 41.488L232.958 38.896C233.768 37.1893 234.707 35.9413 235.774 35.152C236.862 34.3413 238.216 33.936 239.838 33.936C240.563 33.936 241.182 34.0213 241.694 34.192C242.227 34.3627 242.654 34.608 242.974 34.928L239.454 39.92C239.304 39.7493 239.08 39.6107 238.782 39.504C238.504 39.376 238.174 39.312 237.79 39.312C237.15 39.312 236.67 39.504 236.35 39.888C236.03 40.2507 235.87 40.784 235.87 41.488Z" fill="#F59E0B"/>
<path fill-rule="evenodd" clip-rule="evenodd" d="M31.6532 53.592L33.0218 52.2536C33.2516 52.0289 33.6212 52.0289 33.851 52.2536L35.2196 53.592C35.4494 53.8167 35.4494 54.1782 35.2196 54.4029L33.851 55.7413C33.6212 55.966 33.2516 55.966 33.0218 55.7413L31.6532 54.4029C31.4234 54.1782 31.4234 53.8167 31.6532 53.592ZM5.58939 32.4217L11.3836 26.7554C11.6333 26.5111 12.0529 26.5111 12.3026 26.7554C12.5524 26.9996 12.5524 27.4099 12.3026 27.6542L6.50847 33.3205C6.25872 33.5647 5.83914 33.5647 5.58939 33.3205C5.33964 33.0762 5.33964 32.6659 5.58939 32.4217ZM38.7461 42.3767L42.2026 45.7569C42.9818 46.519 42.9818 47.7695 42.2026 48.5315L27.857 62.5604C27.0778 63.3224 25.7991 63.3224 25.0199 62.5604L15.3496 53.1036L8.74622 46.646L0.584413 38.6643C-0.194804 37.9023 -0.194804 36.6518 0.584413 35.8898L14.93 21.8609C15.7092 21.0989 16.9879 21.0989 17.7672 21.8609L18.6463 22.7304C18.1668 23.5315 17.7172 24.3521 17.2976 25.1825C17.0179 24.9871 16.7582 24.909 16.6483 25.0067L3.80118 37.5702C3.66132 37.7069 3.84114 38.0977 4.20078 38.4494L24.5204 58.3205C24.88 58.6722 25.2796 58.848 25.4195 58.7112L38.2666 46.1477C38.4064 46.011 38.2266 45.6202 37.867 45.2685L37.6272 45.034C37.9369 44.1157 38.3065 43.2267 38.7361 42.367L38.7461 42.3767Z" fill="white"/>
<path fill-rule="evenodd" clip-rule="evenodd" d="M35.6492 46.646H35.6692C36.838 40.1297 41.0438 34.737 45.5892 29.8425C34.2506 19.6628 28.5763 14.5729 28.5763 14.5729C27.897 15.1591 27.2376 15.755 26.6083 16.3802C32.3125 20.6299 38.0068 24.8894 43.7111 29.1391C43.9409 29.3052 43.9808 29.6276 43.811 29.8523C43.3015 30.5166 42.792 31.1907 42.3025 31.8648C39.0758 36.2904 36.2686 41.1653 35.6492 46.646Z" fill="white"/>
<path fill-rule="evenodd" clip-rule="evenodd" d="M23.5314 32.3044C23.2117 32.7245 22.962 33.2521 22.8021 33.8871C22.6323 34.5709 22.6023 35.1571 22.7222 35.6456C22.8421 36.1341 23.0419 36.5639 23.3216 36.9254C23.6013 37.2868 23.921 37.5995 24.2806 37.8535C24.6403 38.1075 24.9799 38.3517 25.2896 38.5862C25.5993 38.8206 25.8491 39.0453 26.0389 39.2798C26.2187 39.5143 26.2786 39.7781 26.1987 40.0711C26.1587 40.2372 26.0788 40.3642 25.9789 40.4619C25.869 40.5596 25.7492 40.628 25.5993 40.6671C25.4594 40.7061 25.2996 40.7257 25.1298 40.7159C24.9599 40.7159 24.7901 40.6768 24.6203 40.6378C24.2007 40.5401 23.8511 40.374 23.5613 40.1591C23.2816 39.9441 23.0419 39.7097 22.8421 39.4752C22.6423 39.2407 22.4724 39.0258 22.3226 38.8402C22.1727 38.6546 22.0129 38.5373 21.8431 38.4983C21.6033 38.4396 21.3935 38.5666 21.2137 38.889C21.0339 39.2114 20.8541 39.7585 20.6543 40.5303C20.6143 40.6964 20.6443 40.8918 20.7442 41.1067C20.8441 41.3216 21.0139 41.5561 21.2337 41.7906C21.4535 42.025 21.7332 42.2595 22.0728 42.494C22.4125 42.7284 22.7921 42.9433 23.2317 43.1192C23.1618 43.4025 23.1218 43.6565 23.1018 43.8812C23.0918 44.1059 23.1218 44.3111 23.1917 44.4869C23.2616 44.6628 23.3815 44.8093 23.5613 44.9265C23.7312 45.0536 23.9709 45.1512 24.2706 45.2196C24.4305 45.2587 24.5304 45.2587 24.5903 45.2196C24.6403 45.1806 24.7002 45.0926 24.7601 44.9656L25.2497 43.637C26.3985 43.7542 27.3276 43.5393 28.0568 43.002C28.7861 42.4646 29.2556 41.7222 29.4954 40.7843C29.6652 40.1298 29.6752 39.5534 29.5353 39.0649C29.3955 38.5764 29.1757 38.1368 28.876 37.7655C28.5763 37.3943 28.2267 37.0524 27.8371 36.7691C27.4375 36.4857 27.0778 36.2122 26.7481 35.9582C26.4185 35.6944 26.1587 35.4404 25.9589 35.1766C25.7591 34.9129 25.7092 34.6296 25.7891 34.3072C25.879 33.9457 26.1088 33.6819 26.4684 33.5256C26.8281 33.3693 27.1977 33.34 27.5873 33.4279C27.867 33.4963 28.0668 33.6135 28.1867 33.7698C28.3166 33.9359 28.3865 34.1118 28.4165 34.3072C28.4464 34.5026 28.4464 34.6979 28.4165 34.8836C28.3865 35.0789 28.3565 35.2353 28.3266 35.3525C28.2966 35.4795 28.3066 35.5772 28.3565 35.626C28.4065 35.6847 28.5364 35.7335 28.7561 35.7921C29.4554 35.9582 30.0348 35.9191 30.4944 35.6553C30.9539 35.4013 31.2736 34.9422 31.4334 34.2779C31.6033 33.6038 31.5333 32.9981 31.2336 32.4412C30.9339 31.8843 30.3745 31.4447 29.5653 31.1126C29.6952 30.585 29.6952 30.1454 29.5653 29.8132C29.4255 29.4713 29.0558 29.2271 28.4564 29.0903C28.3366 29.061 28.2367 29.0903 28.1467 29.188C28.0568 29.2759 27.9769 29.4029 27.907 29.5592C27.8371 29.7155 27.7671 29.9011 27.7172 30.1063C27.6572 30.3115 27.5973 30.5069 27.5274 30.6827C27.0179 30.6632 26.5284 30.6925 26.0389 30.7804C25.5494 30.8683 25.0898 31.0344 24.6702 31.2786C24.2407 31.5229 23.871 31.855 23.5414 32.2849M14.3006 37.6385L13.5814 46.3333L25.1897 57.6854L34.89 48.1993C34.9699 47.2517 35.0798 46.4017 35.2296 45.8742C36.1187 39.8074 39.5952 34.4635 43.4114 29.5201C31.1737 20.3857 25.0598 15.8234 25.0598 15.8234C19.2357 21.812 15.4695 29.442 14.3006 37.6288V37.6385Z" fill="white"/>
<path fill-rule="evenodd" clip-rule="evenodd" d="M36.4484 45.6202C36.4484 45.6202 36.5084 45.6104 36.5383 45.6006C38.3865 39.2407 43.1317 34.2974 48.1666 29.8914C37.9569 18.6272 32.842 13 32.842 13C31.873 13.6741 30.9339 14.3873 30.0349 15.1395C35.3495 19.907 40.6542 24.6745 45.9689 29.442C46.1986 29.6471 46.2086 29.9891 46.0088 30.2138C41.873 34.6686 37.867 39.6706 36.4584 45.6299" fill="white"/>
</svg>
